<?xml version="1.0" standalone="no"?>
<!DOCTYPE svg PUBLIC "-//W3C//DTD SVG 20010904//EN"
 "http://www.w3.org/TR/2001/REC-SVG-20010904/DTD/svg10.dtd">
<svg version="1.0" xmlns="http://www.w3.org/2000/svg"
 width="16.000000pt" height="16.000000pt" viewBox="0 0 16.000000 16.000000"
 preserveAspectRatio="xMidYMid meet">
<metadata>
Created by potrace 1.11, written by Peter Selinger 2001-2013
</metadata>
<g transform="translate(0.000000,16.000000) scale(0.006154,-0.006154)"
fill="#000000" stroke="none">
<path d="M850 1696 c-116 -32 -211 -110 -262 -214 -31 -64 -33 -73 -33 -182 0
-109 2 -119 32 -183 78 -164 249 -253 437 -226 123 17 218 75 278 168 42 67
39 71 -45 71 l-74 0 -33 -41 c-44 -55 -106 -82 -190 -82 -117 -1 -206 56 -253
162 -30 66 -29 188 2 256 54 121 167 181 304 161 52 -8 127 -54 147 -91 13
-23 18 -25 92 -25 78 0 79 0 72 23 -11 38 -77 117 -124 148 -93 62 -241 85
-350 55z"/>
<path d="M1470 1296 l0 -406 65 0 65 0 0 165 0 165 43 0 42 0 100 -165 100
-165 82 0 82 0 -106 167 c-63 98 -102 168 -95 171 6 2 35 15 64 30 91 46 136
143 117 250 -12 65 -54 119 -119 156 l-55 31 -192 3 -193 4 0 -406z m368 280
c82 -43 82 -189 0 -232 -23 -13 -63 -19 -135 -22 l-103 -4 0 142 0 142 103 -4
c72 -3 112 -9 135 -22z"/>
</g>
</svg>
